PathFileType	4	(X/Y/Z)	c:/Users/goper/Files/vsCode/490R/osim_files/C05/C05_Fast_05.trc
DataRate	CameraRate	NumFrames	NumMarkers	Units                	OrigDataRate	OrigDataStartFrame	OrigNumFrames
250.00	250.00	10	36	mm	250.0	2206	3529
                Frame#	Time	LPSIS			LASIS			LTH1			LTH2			LTH3			LTH4			LLFE			LMFE			LSH1			LSH2			LSH3			LSH4			LLMAL			LMMAL			LCAL			LMTP5			LTOE			LMTP1			RPSIS			RASIS			RTH1			RTH2			RTH3			RTH4			RLFE			RMFE			RSH1			RSH2			RSH3			RSH4			RLMAL			RMMAL			RCAL			RMTP1			RTOE			RMTP5		
		X1	Y1	Z1	X2	Y2	Z2	X3	Y3	Z3	X4	Y4	Z4	X5	Y5	Z5	X6	Y6	Z6	X7	Y7	Z7	X8	Y8	Z8	X9	Y9	Z9	X10	Y10	Z10	X11	Y11	Z11	X12	Y12	Z12	X13	Y13	Z13	X14	Y14	Z14	X15	Y15	Z15	X16	Y16	Z16	X17	Y17	Z17	X18	Y18	Z18	X19	Y19	Z19	X20	Y20	Z20	X21	Y21	Z21	X22	Y22	Z22	X23	Y23	Z23	X24	Y24	Z24	X25	Y25	Z25	X26	Y26	Z26	X27	Y27	Z27	X28	Y28	Z28	X29	Y29	Z29	X30	Y30	Z30	X31	Y31	Z31	X32	Y32	Z32	X33	Y33	Z33	X34	Y34	Z34	X35	Y35	Z35	X36	Y36	Z36

2206	8.82000	517.67505	1046.91919	348.31577	315.88751	1015.92657	399.81790	387.39783	694.55573	446.83282	370.04681	633.46674	433.72552	311.84103	708.31708	437.22644	305.82391	647.91699	426.55096	320.95288	537.08710	406.38046	330.81381	533.24512	291.09921	426.03351	365.11044	412.10501	425.23486	321.27740	406.24530	362.92142	357.99994	422.46588	0.00000	0.00000	0.00000	425.80307	97.06696	373.09235	396.19022	109.38333	290.31250	482.53247	68.17529	318.99698	288.80618	40.76677	410.27798	248.26338	64.85319	351.40652	258.32547	52.07745	302.98596	517.77167	1045.35510	238.79129	327.48657	1009.33185	170.45877	342.81320	654.96393	130.18535	311.10361	601.50281	141.32516	271.08560	684.94495	124.14020	251.22000	627.92365	133.11722	0.00000	0.00000	0.00000	244.20073	529.68073	151.48569	389.44415	460.76370	136.71222	419.42105	422.55106	137.98492	346.98132	415.85501	135.44077	381.93161	385.12985	137.63861	574.49390	243.61307	158.36584	551.62659	232.01166	243.24695	642.28046	264.54993	207.10161	512.30560	91.98193	232.99884	479.76016	98.22855	185.65347	536.78455	108.28629	122.94131
2207	8.82400	512.38348	1047.71387	348.48270	310.67905	1016.52771	400.17334	383.43079	694.51764	446.73532	367.76031	633.79175	433.99332	309.02390	708.24835	437.68442	303.44016	647.91693	426.81824	319.56042	537.10333	406.77924	329.28336	533.23767	291.29889	425.11038	365.37729	412.32733	424.47049	321.54312	406.36472	362.14880	358.11630	422.62277	0.00000	0.00000	0.00000	425.63068	97.31855	373.01450	396.00351	109.51161	290.25256	482.47052	68.43650	318.91104	288.79456	40.76663	410.26260	247.75031	64.56396	350.90927	258.24759	51.98513	302.92435	512.45544	1046.16528	238.96320	321.92377	1010.39716	170.82712	334.63373	656.70367	130.13837	302.85269	603.56238	140.87466	263.31146	687.32849	124.17567	242.20860	630.44818	133.60674	0.00000	0.00000	0.00000	234.62489	532.48297	151.65604	379.27890	461.22739	136.69836	408.45724	422.36707	138.23230	335.57697	416.79129	135.74213	369.95154	385.46054	137.87752	560.22852	240.39351	158.81244	537.25897	229.40225	243.89438	628.23712	259.69080	207.46599	494.37051	90.11332	233.18988	461.93201	97.26390	185.86652	519.25494	105.97080	123.17025
2208	8.82800	507.08112	1048.42163	348.62088	305.43774	1016.97382	400.58081	380.70685	695.07526	446.95145	365.45087	634.09851	434.21973	306.11920	708.07086	438.03430	301.04529	647.61749	427.19562	318.04938	537.02600	407.10455	327.76154	533.17828	291.54459	424.22498	365.62167	412.54718	423.67075	321.80807	406.57846	361.26654	358.21231	422.81534	0.00000	0.00000	0.00000	425.49942	97.56269	372.94287	395.82349	109.61528	290.18646	482.37921	68.61359	318.86008	288.77341	40.73799	410.28094	248.00439	64.56388	351.43738	258.05905	51.81108	303.00867	507.24191	1046.98218	239.09465	316.87640	1011.47070	171.30626	326.70663	658.39899	130.08543	294.34546	605.57965	140.92664	255.56712	689.73218	124.14526	234.54102	633.21436	133.34390	0.00000	0.00000	0.00000	225.27014	535.28687	151.82869	368.79993	461.23572	136.84796	396.36609	421.52292	138.40776	324.28857	417.75220	135.97037	358.03882	385.80304	138.05173	545.64777	236.90410	159.12541	522.37097	226.51997	244.19720	614.02930	254.68092	207.89436	476.87677	88.06936	233.43681	444.01212	96.27206	185.93144	501.51486	103.65643	123.35423
2209	8.83200	501.82703	1049.13147	348.77115	300.40787	1017.27191	400.98285	378.01993	695.61652	447.11475	362.58652	634.04248	434.11093	303.22879	707.93701	438.36203	298.70032	647.51416	427.66010	316.56784	536.96204	407.51859	326.36517	533.11542	291.78156	423.28268	365.85397	412.78082	422.78415	321.96500	406.74774	360.31039	358.24237	422.96121	0.00000	0.00000	0.00000	425.34109	97.78849	372.86542	395.62869	109.72911	290.11865	483.05338	68.98292	319.33121	288.75635	40.71732	410.30923	247.88452	64.38622	351.44772	258.00577	51.76244	302.94345	501.94437	1047.64490	239.28127	311.31021	1012.49176	171.60120	318.77307	660.10938	130.06509	285.93729	607.62646	140.99141	248.02087	692.12451	124.15659	226.36081	635.78931	133.46359	0.00000	0.00000	0.00000	215.94336	538.03296	152.00835	357.78885	460.97852	137.66679	385.46719	421.15689	138.69629	313.02869	418.59485	136.17845	346.15961	386.00714	138.27620	530.95367	233.44284	159.46989	507.34540	223.51967	244.58586	599.65411	249.44872	208.28549	458.05194	86.37627	233.42116	425.98944	95.17514	185.97238	483.66907	101.36056	123.46436
2210	8.83600	496.60788	1049.76782	348.91571	295.28528	1017.68597	401.38913	375.19421	696.08026	447.27533	360.76794	634.71039	434.68341	300.42053	707.83832	438.78845	296.34958	648.07330	425.87537	314.98709	536.86353	407.87054	325.10416	533.00354	292.02460	422.30518	366.06723	413.02121	421.93408	322.17453	406.96667	359.26306	358.27771	423.10129	369.63513	316.55981	414.21405	424.93991	98.36266	372.99286	395.40445	109.86183	290.03909	482.45050	69.49133	319.13211	288.67126	40.67780	410.32147	247.78108	64.19595	351.46317	257.82260	51.62479	302.98495	496.64981	1048.25916	239.39999	306.20749	1013.42902	172.11009	310.81552	661.82532	129.98065	276.98776	609.25653	141.32739	240.40030	694.46869	124.14244	218.20657	638.35217	133.56999	0.00000	0.00000	0.00000	206.73463	540.74390	152.22685	347.21097	460.77658	137.85478	374.30823	420.53589	138.91472	301.85159	419.39633	136.50082	334.28268	386.10623	138.44791	515.34808	229.74883	159.72363	492.17807	220.37567	244.87552	585.10480	244.08409	208.75702	439.50031	84.52738	233.49310	408.09210	94.00230	186.11462	465.64670	99.01341	123.52032
2211	8.84000	491.37515	1050.36304	349.07495	289.87521	1018.00458	401.83459	372.24362	696.47131	447.38422	359.09946	636.03247	436.23648	297.36349	707.62183	439.07904	293.77097	646.95117	428.66846	313.37564	536.85602	408.27713	323.77338	532.94287	292.26987	421.33755	366.27377	413.26880	421.02658	322.41956	407.16354	358.32559	358.34174	423.28336	368.72089	316.59256	414.32654	424.70798	98.30444	372.76746	395.77853	109.94177	290.07678	482.27130	69.70056	319.10907	288.52753	40.61582	410.37198	247.57094	63.99334	351.49445	257.96640	52.14685	302.08881	491.30707	1048.83789	239.60016	300.59851	1014.34277	172.42043	303.13882	663.43860	129.86012	267.29959	611.36615	141.93320	233.07745	696.76837	124.09304	210.24069	640.85864	133.66545	0.00000	0.00000	0.00000	197.73732	543.41211	152.38420	336.97018	460.67090	137.98685	363.21985	419.80118	139.04840	290.84286	420.14148	136.65869	322.50284	386.20267	138.60509	500.63947	226.16356	160.15123	476.75500	217.09355	245.20187	570.32410	238.58331	209.16887	421.00674	82.41627	233.17805	389.74158	93.01121	186.05528	447.44122	96.75132	123.53427
2212	8.84400	486.10236	1050.89954	349.20798	285.27139	1018.20642	402.29773	369.58276	696.96228	447.67157	356.72293	636.41736	435.90479	294.39267	707.42706	439.30548	291.29596	646.76587	429.10126	311.81036	536.76678	408.67294	322.67642	532.91022	292.52432	420.27106	366.48703	413.48611	420.10498	322.58063	407.37534	357.32251	358.43573	423.47079	367.77057	316.66187	414.52396	424.46008	98.50266	372.70517	396.10358	110.29414	289.99326	482.06439	69.97508	319.07416	288.42303	40.56057	410.36237	247.40195	63.80444	351.50995	258.15393	52.72375	301.10678	486.06067	1049.44958	239.70764	295.58423	1015.18726	172.90849	295.87085	665.17114	129.84209	259.04639	613.28461	141.99013	225.48753	699.00989	124.19108	202.18060	643.31592	133.82146	0.00000	0.00000	0.00000	188.79416	545.97577	152.60919	326.66501	460.36011	138.15005	352.13672	419.02921	139.23875	279.69421	420.76819	136.71085	310.75485	386.23563	138.82899	485.52045	222.43344	160.50038	461.19522	213.75520	245.50253	555.40265	232.96609	209.69554	402.46280	80.72430	233.36278	371.28351	92.17827	185.93156	429.15802	94.52351	123.58250
2213	8.84800	480.89731	1051.41565	349.28418	279.87115	1018.41278	402.51730	366.82251	697.45160	447.82242	354.63553	636.94067	436.31784	291.41855	707.29852	439.56604	288.83990	646.65582	429.50491	310.25513	536.66016	409.03168	321.40918	532.86279	292.77307	419.34915	366.76212	413.63330	419.29565	322.87567	407.53076	356.37656	358.48593	423.56122	367.05280	316.81091	414.66119	424.24545	98.70652	372.60324	395.77454	110.40932	289.91623	481.96298	70.28733	319.04959	288.36646	40.52132	410.37271	247.17584	63.55978	351.31180	258.27414	53.14489	300.33557	480.77417	1050.01160	239.85194	290.25168	1016.05688	173.27399	288.13409	666.72058	129.70305	250.93372	615.23682	141.87779	217.64188	701.08679	124.51110	193.70476	645.68970	133.96440	0.00000	0.00000	0.00000	179.99139	548.49786	152.75148	316.97406	460.37061	137.82327	341.06790	418.10226	139.32207	268.77686	421.41119	136.97739	299.06604	386.18558	139.04297	470.21536	218.64702	160.86652	445.56631	210.40358	245.79762	540.65509	227.35796	210.28343	383.62494	78.85547	233.22276	352.75754	91.21453	185.73289	410.62045	92.29660	123.42130
2214	8.85200	475.68741	1051.88794	349.35382	274.81583	1018.63971	402.89459	364.04611	697.87146	447.96948	352.23502	637.24762	436.50037	288.47656	707.20355	439.95209	286.61453	646.30945	430.06891	308.83282	536.59265	409.43936	320.14255	532.79657	293.05365	418.40854	367.01379	413.82529	418.46796	323.13159	407.64233	355.46872	358.58588	423.72925	366.25830	316.88919	414.80817	424.04883	98.97630	372.50919	395.47598	110.53581	289.83191	482.05399	70.78562	318.98291	288.33722	40.47900	410.37128	247.07756	63.37420	351.33746	258.33273	53.42369	299.75815	475.54266	1050.55212	239.93259	284.82733	1016.79279	173.69893	280.46677	668.20422	129.53165	242.83562	617.09283	141.81172	210.16705	703.17181	124.58717	186.22292	648.03436	134.05653	0.00000	0.00000	0.00000	170.79137	551.05518	152.90710	306.85141	459.81308	137.92683	329.98666	417.15115	139.47838	257.86728	421.95227	137.12804	287.35962	386.07391	139.23401	454.79593	214.78827	161.21449	429.84183	206.96895	246.04582	525.08850	221.48633	210.73575	364.51755	77.09029	233.05392	334.25858	90.38726	185.66058	392.17023	90.09560	123.35352
2215	8.85600	470.46991	1052.33582	349.41608	269.65588	1018.74243	403.32889	361.37460	698.33917	448.15576	349.92587	637.60205	436.74658	286.01071	707.06720	440.51355	284.14743	646.17084	430.15646	307.19635	536.55182	409.80844	318.03110	532.48206	294.66367	417.60913	367.33667	413.97910	417.74969	323.44241	407.80765	354.67010	358.74179	423.90189	365.53812	317.04153	414.95248	423.81433	99.22255	372.41870	395.22296	110.68918	289.73871	481.86557	71.13517	318.92868	288.26935	40.48351	410.38382	246.95700	63.21680	351.33060	258.33548	53.57354	299.35751	470.22198	1051.05957	240.03227	279.52676	1017.53705	173.97256	272.97534	669.71240	129.33536	234.84801	618.88654	141.73235	203.78865	705.51831	123.82127	178.83882	650.26898	134.17905	0.00000	0.00000	0.00000	162.25378	553.40240	153.05843	296.31387	458.93427	138.33272	319.03006	416.09598	139.58012	247.03648	422.40390	137.21568	275.73120	385.92038	139.40796	439.24130	210.82109	161.53305	414.08652	203.43275	246.15677	509.57965	215.62668	211.32603	345.05139	75.32188	232.50243	315.34998	89.61500	185.27377	373.54160	87.98353	123.20358
